<svg width="124" height="61" viewBox="0 0 124 61" fill="none" xmlns="http://www.w3.org/2000/svg">
<path d="M70.371 0.525625C65.9149 0.828257 65.1514 2.78568 63.8688 4.41394C62.3298 6.36475 61.7081 8.36551 60.9952 10.2043C56.3105 22.1796 54.5615 35.4642 53.5141 48.1196C49.5073 40.5334 50.8079 32.0457 49.8948 24.9322C49.6384 22.9498 49.3207 20.8747 48.3388 18.7873C48.1079 18.2931 47.9067 17.6527 47.0636 17.053C43.9526 14.8216 40.4637 16.2445 38.4068 18.1688C36.9578 19.5292 36.2556 20.9791 35.4992 22.3409C31.5442 29.3407 29.0138 36.4767 27.4059 43.5863C26.5173 40.6431 25.8298 37.6676 25.0757 34.6795C24.3014 31.5982 23.5822 28.4995 22.7656 25.405C22.344 23.7869 21.8865 22.1688 21.3749 20.5526C21.1217 19.711 20.9258 18.8234 20.4894 17.9232C19.1347 15.1858 15.1743 15.8012 14.2253 17.8646C13.1703 20.1298 12.0169 22.3914 10.5775 24.5852C8.81077 27.2737 6.46466 29.6673 4.0403 32.1204C3.36559 32.8118 1.19212 35.0973 0.745264 35.6807C0.350196 36.1881 1.22932 37.0328 1.80975 37.0879C3.12738 37.2142 6.91282 34.8182 9.89332 31.8972C12.5031 29.3406 14.3388 26.4778 16.5205 23.9034C17.4706 27.6105 18.1559 30.8498 18.7607 35.0687C19.3581 39.2847 19.9364 43.6692 21.4129 48.0917C22.7411 52.0417 29.5686 52.008 31.4561 48.3709C34.4875 42.5368 36.7118 37.5352 38.6616 32.5148C39.4529 30.4626 40.4601 28.1877 41.7354 25.7748C42.6061 34.5434 43.0636 40.4192 44.4608 47.3853C45.0137 49.6933 45.6534 51.9631 46.3758 54.2074C46.7285 55.3068 47.4201 56.5409 48.098 57.9658C48.1838 58.164 47.9984 59.2166 50.6453 59.803C55.2582 60.8271 58.1581 59.9523 59.0193 58.9628C60.5954 57.1618 60.9693 55.8184 61.1281 55.0316C61.6291 52.5719 62.1301 50.1574 62.4288 47.8453C64.9073 34.4491 66.5045 19.0286 71.1024 7.57834C72.1573 12.3242 72.9486 19.4676 73.854 24.2144C75.178 31.1969 76.5433 38.2341 78.757 45.2368C79.133 46.4621 79.5217 47.7775 80.4083 49.1089C80.4506 49.355 80.8468 49.8191 81.8488 50.3846C83.8782 50.8666 85.5337 50.7622 86.4985 50.1656C87.2897 49.5903 87.5947 49.1002 87.7017 48.7833C88.0809 48.0766 88.3277 47.3884 88.5384 46.7326C89.3095 44.341 89.7586 41.9613 90.1802 39.6064C91.0508 34.7515 92.0264 29.9521 93.6268 25.215C94.2867 23.4288 94.5493 21.6945 95.6308 20.2521C96.8171 22.7348 97.0342 25.381 97.3604 28.0681C97.7396 31.3477 98.2035 34.645 98.9789 37.9333C99.3379 39.6115 99.5593 41.2979 101.094 43.3017C101.921 44.3746 103.677 44.1764 105.269 43.3903C106.06 42.9975 106.366 42.5583 106.641 42.2613C108.144 39.4541 108.581 36.6056 109.145 33.8365C109.566 31.9422 109.972 30.1259 110.542 28.498C111.982 30.725 113.055 33.2164 114.743 35.157C116.43 37.0977 118.439 38.4875 120.849 39.0183C122.079 39.2894 123.432 38.6393 123.495 38.3652C123.564 38.1145 122.879 37.871 122.157 37.2443C121.438 36.6187 120.654 35.5116 119.416 34.2343C117.939 32.3783 116.516 29.9705 115.551 28.3335C115.102 27.5173 114.655 26.639 114.365 26.2843C113.004 24.603 108.495 24.1588 107.363 25.5996C106.194 27.0797 105.445 28.144 104.438 29.4844C104.418 28.9601 104.392 28.4369 104.376 27.9116C104.307 25.1598 103.839 22.2308 102.82 19.1322C102.688 18.7165 102.487 17.6007 99.8147 16.2633C98.2958 15.5022 95.7973 15.2693 93.2498 15.8389C91.0785 16.326 90.4388 17.0026 90.1655 17.2608C87.2485 19.983 86.5006 22.5824 85.9743 24.5979C84.8844 28.0634 83.9078 31.3313 83.3645 34.3846C82.1951 28.8796 81.5088 23.6187 81.1762 19.4962C80.9654 16.8984 80.7377 14.3989 80.4538 11.9181C80.1912 9.46347 79.9528 6.98535 78.7602 4.44605C77.593 1.95722 74.4928 0.24588 70.3705 0.52656L70.371 0.525625Z" fill="#FFB106"/>
</svg>
