<svg width="464" height="145" viewBox="0 0 464 145" fill="none" xmlns="http://www.w3.org/2000/svg">
<path d="M167.104 1.12054C156.445 1.84441 154.619 6.52636 151.551 10.421C147.87 15.0871 146.383 19.8728 144.677 24.2709C133.472 52.9148 129.289 84.6902 126.783 114.961C117.2 96.8153 120.31 76.5135 118.126 59.4986C117.513 54.757 116.753 49.7935 114.405 44.8008C113.852 43.6187 113.371 42.0869 111.354 40.6525C103.913 35.315 95.5683 38.7185 90.6483 43.3213C87.1824 46.5752 85.5028 50.0433 83.6937 53.3006C74.2337 70.0434 68.1812 87.112 64.3352 104.117C62.2097 97.0776 60.5654 89.9606 58.7616 82.8133C56.9096 75.443 55.1894 68.0312 53.2361 60.6294C52.2278 56.7591 51.1333 52.8888 49.9097 49.0232C49.3042 47.01 48.8355 44.8871 47.7917 42.7339C44.5514 36.1862 35.0785 37.6581 32.8085 42.5937C30.2852 48.0117 27.5262 53.4213 24.0833 58.6686C19.8575 65.0993 14.2458 70.8245 8.44701 76.6921C6.83318 78.3458 1.63445 83.8125 0.565616 85.2079C-0.379347 86.4217 1.72344 88.4421 3.11176 88.5738C6.26341 88.876 15.3178 83.1449 22.4469 76.1583C28.6893 70.0431 33.0801 63.1956 38.2985 57.038C40.571 65.9048 42.2101 73.6529 43.6568 83.7442C45.0856 93.8283 46.4689 104.316 50.0005 114.894C53.1775 124.342 69.5081 124.261 74.0228 115.562C81.2738 101.607 86.594 89.6437 91.2579 77.6354C93.1504 72.7268 95.5597 67.2854 98.61 61.514C100.692 82.4878 101.787 96.542 105.129 113.204C106.451 118.725 107.981 124.154 109.709 129.522C110.553 132.152 112.207 135.103 113.829 138.512C114.034 138.986 113.591 141.503 119.922 142.906C130.955 145.356 137.892 143.263 139.951 140.897C143.721 136.589 144.615 133.375 144.995 131.493C146.194 125.61 147.392 119.835 148.107 114.305C154.035 82.2621 157.855 45.3778 168.853 17.9899C171.376 29.3416 173.269 46.4279 175.435 57.7818C178.601 74.4831 181.867 91.3155 187.162 108.065C188.061 110.996 188.991 114.142 191.112 117.327C191.213 117.916 192.161 119.026 194.557 120.378C199.411 121.531 203.371 121.281 205.679 119.854C207.571 118.478 208.301 117.306 208.557 116.548C209.464 114.858 210.054 113.212 210.558 111.643C212.403 105.923 213.477 100.23 214.485 94.5978C216.568 82.9854 218.901 71.5058 222.729 60.175C224.307 55.9026 224.936 51.7543 227.522 48.3042C230.36 54.2426 230.879 60.5722 231.659 66.9994C232.566 74.8439 233.676 82.7308 235.531 90.5959C236.39 94.61 236.919 98.6438 240.59 103.437C242.569 106.003 246.769 105.529 250.577 103.649C252.469 102.709 253.199 101.659 253.858 100.948C257.453 94.2336 258.499 87.4202 259.847 80.7967C260.855 76.266 261.825 71.9215 263.188 68.0278C266.634 73.3544 269.2 79.3136 273.236 83.9554C277.272 88.5973 282.078 91.9216 287.842 93.1913C290.783 93.8396 294.021 92.2847 294.17 91.629C294.335 91.0295 292.698 90.447 290.97 88.948C289.25 87.4515 287.375 84.8035 284.414 81.7484C280.882 77.309 277.478 71.5498 275.169 67.6342C274.095 65.682 273.026 63.5811 272.332 62.7328C269.076 58.7112 258.292 57.6487 255.586 61.095C252.789 64.6352 250.998 67.1809 248.588 70.387C248.54 69.1331 248.48 67.8815 248.439 66.625C248.274 60.043 247.155 53.0371 244.717 45.6256C244.403 44.6312 243.922 41.9625 237.53 38.7635C233.897 36.9429 227.921 36.386 221.827 37.7484C216.634 38.9134 215.104 40.5318 214.45 41.1495C207.473 47.6607 205.684 53.8782 204.425 58.6991C201.818 66.9882 199.482 74.8046 198.183 82.1078C195.386 68.9405 193.744 56.3568 192.948 46.4964C192.444 40.2826 191.9 34.304 191.221 28.3703C190.592 22.499 190.022 16.5716 187.17 10.4978C184.378 4.54478 176.962 0.451418 167.102 1.12278L167.104 1.12054Z" fill="#410603"/>
<rect x="320.492" y="0.879883" width="143.293" height="143.293" rx="71.6466" fill="#410603"/>
<rect x="320.492" y="0.879883" width="143.293" height="143.293" rx="71.6466" fill="#410603"/>
<path d="M402.202 53.9906L411.74 49.6788L414.484 50.0704C413.875 51.5512 412.551 54.6697 412.133 55.2969C411.714 55.9241 409.432 61.9172 408.343 64.8353L407.167 73.3284L408.866 81.5602L412.525 90.9679L415.007 96.3251L406.253 93.3198L399.589 90.8372L391.096 89.3999L384.824 90.4452L377.768 92.0132L370.843 93.7118L367.185 94.2346L368.36 91.2292C369.362 88.5724 371.444 83.0236 371.758 82.0828C372.071 81.142 373.805 75.5933 374.632 72.9365L374.371 65.6193L370.451 55.1662L368.361 49.6785L372.019 50.4622L382.995 54.1209L392.011 55.5583L402.202 53.9906Z" fill="#ED4C4E"/>
</svg>
