<svg width="48" height="57" viewBox="0 0 48 57" fill="none" xmlns="http://www.w3.org/2000/svg">
<path d="M47.2315 30.2381C46.987 29.6714 46.3313 29.4158 45.7757 29.6603C39.9081 32.194 34.452 32.0717 30.8958 31.5161C27.0174 30.9161 24.5059 29.6936 24.4837 29.6825C24.4616 29.6714 24.4393 29.6603 24.4059 29.6492C17.9604 27.0266 12.0377 27.171 8.20321 27.7489C5.90281 28.0934 4.06917 28.6268 2.86902 29.0491V22.448C5.21383 21.5368 13.7711 18.7697 23.5169 22.7258C23.917 22.9259 26.4951 24.1705 30.4069 24.8039C31.7293 25.0262 33.3073 25.1818 35.0743 25.1818C38.4193 25.1818 42.431 24.6039 46.6541 22.7258C47.2097 22.4813 47.4653 21.8257 47.2208 21.2589C46.9764 20.7032 46.3207 20.4476 45.7539 20.6921C39.8418 23.3147 34.3855 23.1925 30.8517 22.6257C26.9955 22.0034 24.5062 20.7365 24.484 20.7254C24.4506 20.7143 24.4173 20.6921 24.384 20.681C17.9384 18.0584 12.0158 18.2028 8.18124 18.7807C5.88083 19.1252 4.04719 19.6586 2.84705 20.0809V13.6354C5.19186 12.7241 13.7491 9.95703 23.5061 13.9132C23.8728 14.091 26.451 15.2801 30.3961 15.9024C31.7185 16.1136 33.2965 16.258 35.0523 16.258C38.3973 16.258 42.398 15.7024 46.6209 13.9243C47.1877 13.6798 47.4544 13.0353 47.2099 12.4685C46.9654 11.9018 46.3209 11.635 45.7541 11.8795C39.831 14.3799 34.3634 14.2688 30.8296 13.7242C26.9624 13.1353 24.4841 11.9239 24.4508 11.9129C24.4286 11.9017 24.4064 11.8906 24.373 11.8795C17.9275 9.25692 12.0048 9.4013 8.17029 9.97922C5.86989 10.3237 4.04742 10.8571 2.83611 11.2794V4.65611C5.18091 3.74485 13.7382 0.977755 23.4952 4.93393C23.8952 5.13397 26.4956 6.36746 30.4296 7.01203C31.7632 7.23429 33.3412 7.38988 35.0971 7.38988C38.4421 7.38988 42.4427 6.81201 46.6321 4.93391C47.1878 4.67832 47.4434 4.02265 47.1878 3.46696C46.9322 2.91127 46.2765 2.65572 45.7208 2.91131C39.8977 5.52283 34.4408 5.4006 30.8958 4.83385C27.0286 4.21153 24.5171 2.94464 24.4837 2.93356C24.4504 2.92249 24.4282 2.90022 24.3948 2.88911C17.9605 0.266519 12.0378 0.410898 8.2033 0.988819C4.03592 1.62226 1.39108 2.86686 1.27992 2.92244C1.26881 2.92244 1.26881 2.93355 1.2577 2.93355C1.23547 2.94466 1.21325 2.95578 1.20213 2.96689C1.19102 2.978 1.17991 2.978 1.15768 2.98911C1.14657 3.00023 1.12434 3.01134 1.11323 3.02245C1.10212 3.03357 1.07989 3.04468 1.06878 3.05579L1.03544 3.08913C1.02433 3.10024 1.0021 3.11136 0.99099 3.13358L0.879855 3.24471C0.868742 3.25583 0.85763 3.27805 0.846517 3.28917C0.835405 3.30028 0.824292 3.3225 0.813179 3.33362C0.802067 3.34473 0.790954 3.36696 0.790954 3.37807C0.77984 3.4003 0.768727 3.41141 0.757615 3.43363C0.746501 3.44475 0.746501 3.45586 0.735389 3.47809C0.724277 3.50031 0.713163 3.52254 0.713163 3.53365C0.713163 3.54476 0.70205 3.55588 0.70205 3.5781C0.690937 3.60033 0.690937 3.62255 0.679825 3.63367C0.679825 3.64478 0.668711 3.66701 0.668711 3.67812C0.668711 3.70034 0.657597 3.71146 0.657597 3.73368C0.657597 3.75591 0.646484 3.76702 0.646484 3.78925V3.8337V3.90038V3.9226V55.0861C0.646484 55.6973 1.14657 56.1974 1.75782 56.1974C2.36908 56.1974 2.86916 55.6974 2.86916 55.0861V31.4155C3.8471 31.0377 5.8808 30.3376 8.61454 29.9264C12.1484 29.4041 17.6048 29.2819 23.5279 31.6934C23.8946 31.8712 26.5061 33.0714 30.4624 33.7048C31.7959 33.916 33.3739 34.0716 35.1298 34.0716C38.4748 34.0716 42.4644 33.5159 46.6537 31.7045C47.2094 31.4489 47.4761 30.7933 47.2316 30.2376L47.2315 30.2381Z" fill="#410603"/>
</svg>
