<svg width="17" height="18" viewBox="0 0 17 18" fill="none" xmlns="http://www.w3.org/2000/svg">
<path d="M8.42884 2.22227C10.6053 2.22227 10.863 2.23047 11.7228 2.26987C12.2398 2.27623 12.7518 2.37162 13.2367 2.55192C13.5883 2.6882 13.9076 2.89697 14.1741 3.16478C14.4406 3.4326 14.6483 3.75352 14.7839 4.1069C14.9633 4.59419 15.0582 5.10879 15.0645 5.62833C15.1034 6.49243 15.1119 6.75146 15.1119 8.93882C15.1119 11.1262 15.1038 11.3852 15.0645 12.2493C15.0582 12.7688 14.9633 13.2834 14.7839 13.7707C14.6483 14.1241 14.4406 14.445 14.1741 14.7128C13.9076 14.9807 13.5883 15.1894 13.2367 15.3257C12.7518 15.506 12.2398 15.6014 11.7228 15.6078C10.8634 15.6468 10.6057 15.6554 8.42884 15.6554C6.252 15.6554 5.99426 15.6472 5.13486 15.6078C4.61791 15.6014 4.10587 15.506 3.62101 15.3257C3.26939 15.1894 2.95007 14.9807 2.68359 14.7128C2.41711 14.445 2.20938 14.1241 2.07378 13.7707C1.89438 13.2834 1.79946 12.7688 1.79313 12.2493C1.75432 11.3852 1.74578 11.1262 1.74578 8.93882C1.74578 6.75146 1.75393 6.49243 1.79313 5.62833C1.79946 5.10879 1.89438 4.59419 2.07378 4.1069C2.20938 3.75352 2.41711 3.4326 2.68359 3.16478C2.95007 2.89697 3.26939 2.6882 3.62101 2.55192C4.10587 2.37162 4.61791 2.27623 5.13486 2.26987C5.99465 2.23086 6.25239 2.22227 8.42884 2.22227V2.22227ZM8.42884 0.746094C6.21629 0.746094 5.93759 0.755456 5.06809 0.795248C4.39154 0.808772 3.72217 0.937514 3.08845 1.176C2.54482 1.38184 2.05243 1.70443 1.64563 2.12124C1.23053 2.53022 0.909276 3.02536 0.704327 3.57206C0.467033 4.20895 0.338933 4.88168 0.325476 5.56162C0.28666 6.43469 0.277344 6.71479 0.277344 8.93843C0.277344 11.1621 0.28666 11.4422 0.326253 12.316C0.33971 12.996 0.46781 13.6687 0.705103 14.3056C0.909825 14.8522 1.23081 15.3473 1.64563 15.7564C2.05265 16.1733 2.54532 16.4959 3.08922 16.7016C3.72294 16.9401 4.39232 17.0689 5.06887 17.0824C5.93836 17.1214 6.2159 17.1315 8.42962 17.1315C10.6433 17.1315 10.9209 17.1222 11.7904 17.0824C12.4669 17.0689 13.1363 16.9401 13.77 16.7016C14.3113 16.4908 14.8029 16.1687 15.2133 15.7559C15.6237 15.3432 15.9439 14.849 16.1534 14.3048C16.3906 13.6679 16.5187 12.9952 16.5322 12.3152C16.571 11.4422 16.5803 11.1621 16.5803 8.93843C16.5803 6.71479 16.571 6.43469 16.5314 5.56084C16.518 4.8809 16.3899 4.20817 16.1526 3.57128C15.9479 3.02465 15.6269 2.52951 15.212 2.12045C14.805 1.70355 14.3124 1.38096 13.7685 1.17522C13.1347 0.936733 12.4654 0.807992 11.7888 0.794468C10.9201 0.755456 10.6414 0.746094 8.42884 0.746094Z" fill="#F5F0EE"/>
<path d="M8.42818 4.73145C7.60027 4.73145 6.79095 4.97818 6.10257 5.44045C5.41418 5.90271 4.87766 6.55975 4.56083 7.32847C4.244 8.09719 4.1611 8.94307 4.32262 9.75914C4.48414 10.5752 4.88282 11.3248 5.46824 11.9132C6.05366 12.5015 6.79953 12.9022 7.61153 13.0645C8.42353 13.2269 9.2652 13.1435 10.0301 12.8251C10.795 12.5067 11.4487 11.9675 11.9087 11.2757C12.3687 10.5838 12.6142 9.77046 12.6142 8.9384C12.6142 7.82265 12.1731 6.75259 11.3881 5.96364C10.6031 5.17468 9.53837 4.73145 8.42818 4.73145ZM8.42818 11.6692C7.89077 11.6692 7.36544 11.509 6.9186 11.209C6.47176 10.9089 6.1235 10.4824 5.91784 9.98343C5.71219 9.48444 5.65838 8.93537 5.76322 8.40565C5.86806 7.87594 6.12685 7.38936 6.50685 7.00745C6.88685 6.62555 7.37101 6.36546 7.89808 6.2601C8.42516 6.15473 8.97149 6.20881 9.46799 6.41549C9.96449 6.62218 10.3889 6.97219 10.6874 7.42126C10.986 7.87034 11.1453 8.39831 11.1453 8.9384C11.1453 9.66265 10.8591 10.3572 10.3495 10.8694C9.83994 11.3815 9.14881 11.6692 8.42818 11.6692V11.6692Z" fill="#F5F0EE"/>
<path d="M12.779 5.54819C13.3192 5.54819 13.7571 5.10805 13.7571 4.56511C13.7571 4.02217 13.3192 3.58203 12.779 3.58203C12.2387 3.58203 11.8008 4.02217 11.8008 4.56511C11.8008 5.10805 12.2387 5.54819 12.779 5.54819Z" fill="#F5F0EE"/>
</svg>
