<svg width="126" height="127" viewBox="0 0 126 127" fill="none" xmlns="http://www.w3.org/2000/svg">
<rect x="0.0585938" y="0.898926" width="125.651" height="125.651" rx="62.8256" fill="#410603"/>
<rect x="0.0585938" y="0.898926" width="125.651" height="125.651" rx="62.8256" fill="#410603"/>
<path d="M71.7063 47.4707L80.0703 43.6898L82.4765 44.0331C81.9418 45.3316 80.7807 48.0662 80.4141 48.6162C80.0475 49.1661 78.0462 54.4213 77.0914 56.9802L76.0602 64.4277L77.5497 71.6459L80.7578 79.8954L82.9348 84.593L75.2582 81.9578L69.4148 79.7808L61.9674 78.5205L56.4677 79.4371L50.2806 80.812L44.2081 82.3015L41.0001 82.76L42.0311 80.1246C42.9095 77.7949 44.7351 72.9292 45.0101 72.1042C45.2851 71.2793 46.8052 66.4137 47.5308 64.084L47.3016 57.6677L43.8643 48.5016L42.0312 43.6895L45.2391 44.3767L54.8636 47.5849L62.7695 48.8454L71.7063 47.4707Z" fill="#ED4C4E"/>
</svg>
