<svg width="222" height="225" viewBox="0 0 222 225" fill="none" xmlns="http://www.w3.org/2000/svg">
<path d="M211.398 112.979L211.619 114.447C210.935 114.532 210.376 114.814 209.94 115.293C209.505 115.778 209.266 116.439 209.224 117.278C209.182 118.116 209.35 118.798 209.729 119.324C210.108 119.849 210.613 120.128 211.243 120.16C211.623 120.179 211.96 120.118 212.253 119.978C212.547 119.838 212.789 119.641 212.98 119.388C213.172 119.136 213.345 118.843 213.498 118.511C213.658 118.18 213.804 117.826 213.936 117.452C214.068 117.083 214.202 116.714 214.34 116.345C214.484 115.977 214.653 115.628 214.849 115.298C215.05 114.968 215.276 114.679 215.527 114.429C215.784 114.179 216.104 113.987 216.486 113.851C216.874 113.716 217.315 113.66 217.809 113.685C218.808 113.735 219.61 114.148 220.214 114.923C220.825 115.705 221.101 116.682 221.042 117.853C220.984 119.001 220.637 119.916 220.001 120.599C219.365 121.283 218.552 121.677 217.563 121.782L217.35 120.323C218.041 120.221 218.597 119.954 219.018 119.522C219.445 119.09 219.677 118.5 219.715 117.751C219.752 117.001 219.587 116.385 219.217 115.902C218.848 115.424 218.36 115.17 217.754 115.14C217.403 115.122 217.09 115.184 216.814 115.325C216.545 115.466 216.321 115.664 216.141 115.917C215.967 116.177 215.806 116.472 215.658 116.805C215.516 117.137 215.38 117.488 215.248 117.857C215.122 118.232 214.987 118.604 214.843 118.972C214.699 119.347 214.524 119.698 214.316 120.028C214.115 120.357 213.88 120.647 213.611 120.895C213.342 121.15 213.001 121.345 212.589 121.479C212.183 121.614 211.721 121.668 211.204 121.642C210.176 121.59 209.351 121.149 208.731 120.32C208.111 119.49 207.833 118.448 207.896 117.193C207.957 115.968 208.311 114.984 208.956 114.242C209.601 113.505 210.415 113.084 211.398 112.979Z" fill="#410603"/>
<path d="M212.267 124.061C213.155 124.202 213.93 124.539 214.592 125.073C215.254 125.612 215.732 126.282 216.027 127.083C216.321 127.883 216.397 128.73 216.255 129.624C216.1 130.6 215.718 131.425 215.11 132.1C214.503 132.775 213.76 133.238 212.882 133.49L212.51 132.192C213.159 132.012 213.707 131.677 214.152 131.188C214.597 130.704 214.875 130.115 214.985 129.421C215.139 128.457 214.935 127.596 214.375 126.838C213.813 126.085 213.036 125.63 212.042 125.472C211.054 125.315 210.174 125.506 209.401 126.046C208.633 126.593 208.172 127.348 208.018 128.312C207.908 129.006 207.989 129.652 208.261 130.25C208.533 130.854 208.95 131.342 209.511 131.715L208.763 132.835C208.007 132.322 207.445 131.651 207.076 130.821C206.708 129.991 206.602 129.088 206.757 128.112C206.899 127.218 207.235 126.437 207.763 125.767C208.298 125.099 208.96 124.61 209.751 124.302C210.546 124.001 211.385 123.92 212.267 124.061Z" fill="#410603"/>
<path d="M205.824 134.036L214.806 136.252L214.472 137.604L213.033 137.249C213.527 137.782 213.835 138.41 213.957 139.133C214.085 139.857 213.985 140.611 213.657 141.395L212.401 140.892C212.846 139.959 212.895 139.076 212.549 138.243C212.207 137.417 211.565 136.887 210.623 136.655L205.49 135.389L205.824 134.036Z" fill="#410603"/>
<path d="M208.775 141.492C209.624 141.786 210.329 142.253 210.889 142.893C211.446 143.539 211.801 144.282 211.952 145.122C212.102 145.961 212.03 146.809 211.735 147.664C211.439 148.519 210.973 149.23 210.336 149.798C209.699 150.365 208.963 150.728 208.127 150.886C207.289 151.05 206.446 150.986 205.596 150.692C204.752 150.4 204.051 149.931 203.493 149.285C202.939 148.647 202.584 147.907 202.427 147.065C202.277 146.226 202.349 145.378 202.644 144.523C202.94 143.668 203.406 142.957 204.043 142.389C204.685 141.824 205.423 141.458 206.255 141.292C207.091 141.134 207.931 141.2 208.775 141.492ZM208.308 142.843C207.363 142.516 206.462 142.551 205.607 142.949C204.755 143.354 204.17 144.017 203.851 144.94C203.533 145.863 203.584 146.744 204.006 147.582C204.432 148.429 205.117 149.015 206.063 149.342C207.014 149.67 207.915 149.632 208.766 149.227C209.616 148.828 210.2 148.167 210.519 147.244C210.838 146.321 210.787 145.438 210.367 144.593C209.945 143.755 209.259 143.171 208.308 142.843Z" fill="#410603"/>
<path d="M200.413 150.85L212.841 156.216L212.289 157.495L199.861 152.129L200.413 150.85Z" fill="#410603"/>
<path d="M198.92 154.203L211.14 160.029L210.54 161.286L198.32 155.461L198.92 154.203Z" fill="#410603"/>
<path d="M195.371 161.341L206.15 168.255L203.71 172.059C203.218 172.825 202.617 173.454 201.906 173.946C201.196 174.446 200.449 174.783 199.664 174.959C198.88 175.135 198.066 175.147 197.223 174.995C196.376 174.848 195.577 174.533 194.825 174.051C194.074 173.569 193.455 172.974 192.968 172.266C192.479 171.563 192.15 170.818 191.983 170.032C191.815 169.245 191.808 168.424 191.961 167.567C192.116 166.719 192.44 165.911 192.932 165.145L195.371 161.341ZM195.695 163.268L194.085 165.778C193.564 166.59 193.28 167.441 193.233 168.33C193.186 169.219 193.371 170.056 193.788 170.839C194.206 171.631 194.819 172.286 195.626 172.803C196.433 173.321 197.281 173.603 198.17 173.65C199.056 173.702 199.893 173.521 200.682 173.108C201.471 172.694 202.125 172.082 202.646 171.27L204.256 168.759L195.695 163.268Z" fill="#410603"/>
<path d="M192.251 174.481C192.944 175.053 193.44 175.738 193.74 176.534C194.035 177.335 194.107 178.155 193.954 178.994C193.801 179.833 193.436 180.601 192.859 181.298C192.283 181.996 191.597 182.499 190.801 182.806C190.006 183.114 189.189 183.196 188.351 183.051C187.509 182.911 186.742 182.555 186.049 181.982C185.36 181.413 184.868 180.728 184.573 179.928C184.278 179.135 184.204 178.318 184.353 177.475C184.506 176.636 184.871 175.867 185.447 175.17C186.024 174.473 186.71 173.97 187.505 173.662C188.305 173.358 189.124 173.274 189.961 173.41C190.8 173.555 191.563 173.912 192.251 174.481ZM191.341 175.582C190.57 174.944 189.714 174.662 188.774 174.734C187.834 174.815 187.054 175.231 186.431 175.984C185.809 176.736 185.549 177.579 185.65 178.512C185.752 179.454 186.188 180.244 186.959 180.881C187.735 181.522 188.592 181.802 189.532 181.722C190.467 181.646 191.246 181.231 191.868 180.479C192.49 179.727 192.753 178.881 192.655 177.943C192.554 177.01 192.116 176.223 191.341 175.582Z" fill="#410603"/>
<path d="M179.769 181.873L188.475 186.41L187.389 187.42L180.193 183.575L183.492 191.044L182.452 192.011L175.243 188.179L178.554 195.635L177.534 196.583L173.647 187.565L174.785 186.506L181.596 189.989L178.631 182.931L179.769 181.873Z" fill="#410603"/>
<path d="M170.159 190.431L175.547 197.952L174.414 198.763L173.572 197.587C173.586 198.199 173.455 198.784 173.179 199.34C172.899 199.899 172.486 200.375 171.939 200.767C171.01 201.432 170.018 201.674 168.965 201.491C167.915 201.313 167.057 200.76 166.391 199.831L163.219 195.402L164.344 194.596L167.423 198.894C167.901 199.562 168.523 199.955 169.289 200.073C170.053 200.199 170.771 200.021 171.444 199.539C172.107 199.064 172.502 198.445 172.628 197.681C172.758 196.921 172.584 196.208 172.105 195.54L169.027 191.242L170.159 190.431Z" fill="#410603"/>
<path d="M150.619 205.781L149.371 206.587C149.013 205.999 148.526 205.605 147.91 205.405C147.289 205.208 146.588 205.262 145.806 205.569C145.025 205.876 144.473 206.31 144.149 206.871C143.826 207.433 143.78 208.008 144.01 208.595C144.15 208.95 144.343 209.232 144.592 209.441C144.84 209.651 145.119 209.791 145.428 209.861C145.737 209.932 146.075 209.969 146.441 209.972C146.809 209.982 147.191 209.969 147.587 209.935C147.977 209.903 148.369 209.875 148.761 209.848C149.156 209.828 149.544 209.839 149.925 209.881C150.309 209.929 150.666 210.016 150.996 210.142C151.329 210.273 151.637 210.485 151.918 210.778C152.201 211.076 152.433 211.455 152.613 211.915C152.979 212.846 152.932 213.747 152.475 214.617C152.013 215.495 151.237 216.148 150.145 216.577C149.076 216.996 148.098 217.057 147.214 216.758C146.329 216.459 145.635 215.881 145.132 215.023L146.375 214.229C146.752 214.816 147.224 215.213 147.791 215.419C148.36 215.63 148.994 215.599 149.692 215.325C150.391 215.051 150.884 214.646 151.173 214.111C151.456 213.578 151.487 213.029 151.265 212.463C151.137 212.136 150.951 211.876 150.709 211.684C150.47 211.496 150.197 211.373 149.893 211.313C149.585 211.262 149.249 211.237 148.885 211.239C148.523 211.246 148.147 211.266 147.757 211.298C147.363 211.337 146.969 211.367 146.574 211.388C146.174 211.411 145.781 211.395 145.395 211.342C145.012 211.294 144.652 211.199 144.314 211.056C143.971 210.916 143.654 210.686 143.362 210.365C143.072 210.05 142.833 209.652 142.644 209.17C142.267 208.211 142.33 207.279 142.831 206.372C143.332 205.465 144.167 204.783 145.337 204.324C146.478 203.876 147.52 203.793 148.463 204.076C149.399 204.36 150.118 204.929 150.619 205.781Z" fill="#410603"/>
<path d="M141.025 211.068C141.263 211.934 141.276 212.78 141.065 213.603C140.847 214.429 140.435 215.141 139.828 215.74C139.221 216.34 138.481 216.759 137.609 216.999C136.656 217.261 135.747 217.255 134.881 216.981C134.015 216.706 133.286 216.222 132.693 215.526L133.721 214.651C134.154 215.168 134.685 215.528 135.315 215.731C135.939 215.936 136.59 215.946 137.268 215.759C138.209 215.5 138.909 214.959 139.368 214.135C139.821 213.313 139.914 212.417 139.647 211.446C139.382 210.482 138.843 209.76 138.032 209.279C137.216 208.806 136.338 208.698 135.397 208.957C134.719 209.144 134.165 209.485 133.733 209.98C133.295 210.477 133.023 211.058 132.916 211.724L131.587 211.506C131.741 210.605 132.119 209.816 132.723 209.137C133.327 208.459 134.105 207.988 135.058 207.726C135.93 207.486 136.781 207.468 137.609 207.673C138.438 207.883 139.157 208.284 139.764 208.877C140.368 209.476 140.788 210.207 141.025 211.068Z" fill="#410603"/>
<path d="M129.122 209.34L130.786 218.441L129.415 218.691L129.149 217.233C128.866 217.902 128.419 218.441 127.81 218.849C127.202 219.263 126.473 219.48 125.624 219.503L125.568 218.151C126.601 218.174 127.426 217.857 128.044 217.199C128.658 216.548 128.877 215.746 128.702 214.791L127.752 209.591L129.122 209.34Z" fill="#410603"/>
<path d="M123.698 215.059C123.782 215.954 123.647 216.789 123.294 217.563C122.936 218.337 122.405 218.966 121.703 219.45C121 219.934 120.198 220.218 119.297 220.301C118.396 220.385 117.556 220.254 116.777 219.907C115.997 219.561 115.363 219.04 114.874 218.344C114.379 217.649 114.09 216.853 114.007 215.958C113.924 215.069 114.062 214.237 114.421 213.463C114.774 212.694 115.301 212.066 116.003 211.576C116.706 211.092 117.507 210.809 118.409 210.725C119.31 210.641 120.15 210.773 120.929 211.119C121.709 211.471 122.347 211.992 122.841 212.681C123.33 213.377 123.616 214.17 123.698 215.059ZM122.276 215.191C122.183 214.195 121.78 213.389 121.065 212.774C120.345 212.165 119.499 211.906 118.527 211.996C117.554 212.087 116.773 212.497 116.183 213.227C115.588 213.964 115.337 214.83 115.429 215.826C115.522 216.828 115.929 217.633 116.649 218.242C117.363 218.851 118.206 219.111 119.178 219.021C120.151 218.931 120.935 218.52 121.53 217.789C122.12 217.059 122.369 216.193 122.276 215.191Z" fill="#410603"/>
<path d="M111.74 211.299L112.001 224.834L110.608 224.861L110.347 211.326L111.74 211.299Z" fill="#410603"/>
<path d="M107.666 211.32L107.405 224.855L106.012 224.828L106.274 211.293L107.666 211.32Z" fill="#410603"/>
<path d="M99.6151 211.007L97.7477 223.676L93.2775 223.017C92.3764 222.884 91.5555 222.594 90.8149 222.148C90.0676 221.707 89.4524 221.165 88.9695 220.522C88.4866 219.879 88.1409 219.142 87.9324 218.311C87.7181 217.479 87.676 216.622 87.8062 215.738C87.9364 214.855 88.2242 214.046 88.6695 213.311C89.1089 212.575 89.6525 211.97 90.3004 211.493C90.9483 211.017 91.6941 210.673 92.5378 210.46C93.3747 210.253 94.2438 210.215 95.1449 210.348L99.6151 211.007ZM97.9925 212.095L95.0418 211.66C94.0877 211.519 93.1957 211.61 92.3658 211.933C91.5359 212.256 90.8495 212.769 90.3067 213.471C89.7572 214.178 89.4125 215.006 89.2727 215.954C89.133 216.903 89.2246 217.792 89.5475 218.622C89.8646 219.451 90.3738 220.139 91.0752 220.688C91.7767 221.237 92.6044 221.582 93.5585 221.722L96.5092 222.157L97.9925 212.095Z" fill="#410603"/>
<path d="M86.4973 213.58C86.2621 214.447 85.844 215.182 85.243 215.784C84.6362 216.384 83.9192 216.788 83.0919 216.996C82.2647 217.204 81.4144 217.189 80.541 216.952C79.6676 216.716 78.9263 216.299 78.317 215.702C77.7078 215.105 77.2957 214.395 77.0808 213.572C76.8602 212.748 76.8675 211.901 77.1026 211.034C77.3361 210.172 77.7563 209.441 78.3631 208.84C78.9626 208.244 79.6768 207.839 80.5056 207.626C81.3328 207.418 82.1831 207.433 83.0565 207.67C83.9299 207.906 84.6712 208.323 85.2805 208.92C85.8882 209.523 86.3031 210.233 86.5253 211.052C86.7402 211.875 86.7308 212.718 86.4973 213.58ZM85.1182 213.206C85.3798 212.241 85.2834 211.345 84.8288 210.518C84.367 209.696 83.6649 209.158 82.7225 208.902C81.7802 208.647 80.905 208.758 80.097 209.236C79.2817 209.718 78.7432 210.442 78.4816 211.407C78.2185 212.379 78.3178 213.275 78.7796 214.097C79.2358 214.918 79.935 215.456 80.8773 215.711C81.8197 215.967 82.6977 215.856 83.5115 215.38C84.3195 214.902 84.8551 214.177 85.1182 213.206Z" fill="#410603"/>
<path d="M74.6182 205.244L74.041 215.045L72.6757 214.467L73.2386 206.328L67.7739 212.394L66.4663 211.841L67.0127 203.695L61.5645 209.767L60.2815 209.225L66.9202 201.988L68.3512 202.593L67.9607 210.233L73.1872 204.639L74.6182 205.244Z" fill="#410603"/>
<path d="M62.8708 199.975L58.1948 207.957L56.9927 207.253L57.7239 206.005C57.1702 206.267 56.5834 206.385 55.9634 206.36C55.3382 206.332 54.7354 206.148 54.1549 205.808C53.1687 205.23 52.5445 204.423 52.2824 203.386C52.0173 202.355 52.1737 201.346 52.7514 200.36L55.5047 195.66L56.699 196.359L54.0269 200.921C53.6117 201.63 53.506 202.358 53.7099 203.105C53.9057 203.854 54.3605 204.438 55.0746 204.856C55.7783 205.269 56.5049 205.377 57.2543 205.181C58.0007 204.99 58.5815 204.541 58.9968 203.832L61.6688 199.27L62.8708 199.975Z" fill="#410603"/>
<path d="M40.9203 188.429L39.6738 187.622C40.0633 187.053 40.223 186.448 40.1529 185.804C40.0785 185.157 39.7412 184.539 39.1413 183.952C38.5413 183.365 37.9189 183.04 37.2741 182.975C36.6293 182.91 36.0862 183.104 35.6449 183.555C35.3784 183.827 35.2006 184.12 35.1114 184.432C35.0222 184.745 35.0087 185.056 35.0711 185.367C35.1334 185.678 35.2379 186.001 35.3847 186.336C35.5273 186.676 35.6953 187.019 35.8885 187.366C36.0775 187.709 36.2644 188.055 36.4492 188.402C36.6298 188.754 36.779 189.112 36.8966 189.477C37.0101 189.846 37.0772 190.208 37.0979 190.561C37.1144 190.919 37.0468 191.286 36.8952 191.662C36.7393 192.043 36.4886 192.409 36.1431 192.763C35.4436 193.477 34.6031 193.804 33.6216 193.744C32.6316 193.683 31.7175 193.242 30.8792 192.422C30.0579 191.619 29.6023 190.752 29.5121 189.823C29.422 188.893 29.6651 188.023 30.2415 187.213L31.4753 188.021C31.0944 188.606 30.9262 189.199 30.9706 189.801C31.0109 190.406 31.2991 190.971 31.8353 191.496C32.3714 192.021 32.9428 192.305 33.5495 192.349C34.152 192.389 34.6655 192.191 35.0902 191.757C35.3358 191.506 35.497 191.231 35.5737 190.931C35.6463 190.636 35.6472 190.337 35.5766 190.034C35.4975 189.732 35.3825 189.416 35.2316 189.085C35.0764 188.758 34.9044 188.423 34.7154 188.08C34.518 187.737 34.329 187.39 34.1484 187.038C33.9635 186.682 33.8164 186.317 33.707 185.944C33.5936 185.575 33.5327 185.207 33.5245 184.841C33.5121 184.471 33.5921 184.087 33.7646 183.689C33.9329 183.296 34.1981 182.914 34.5604 182.544C35.2806 181.807 36.1569 181.482 37.1893 181.568C38.2216 181.653 39.1867 182.135 40.0846 183.014C40.9611 183.872 41.4637 184.788 41.5922 185.763C41.7164 186.734 41.4925 187.623 40.9203 188.429Z" fill="#410603"/>
<path d="M32.1765 181.868C31.4837 182.441 30.7182 182.8 29.8799 182.945C29.0379 183.085 28.2191 183.001 27.4238 182.693C26.6284 182.385 25.9425 181.882 25.3659 181.185C24.7362 180.423 24.3689 179.591 24.2642 178.689C24.1594 177.787 24.3026 176.923 24.6938 176.097L25.9138 176.676C25.6195 177.282 25.5088 177.915 25.5818 178.573C25.6509 179.226 25.9093 179.824 26.3569 180.365C26.979 181.118 27.7599 181.534 28.6994 181.615C29.6351 181.691 30.4907 181.408 31.2661 180.767C32.0369 180.13 32.4752 179.343 32.5809 178.406C32.6783 177.468 32.4159 176.622 31.7938 175.87C31.3462 175.329 30.8079 174.962 30.179 174.772C29.5464 174.576 28.9046 174.566 28.2537 174.741L27.9078 173.44C28.7921 173.211 29.6674 173.233 30.5338 173.505C31.4002 173.778 32.1482 174.295 32.7779 175.056C33.3545 175.754 33.7194 176.522 33.8724 177.361C34.0208 178.204 33.9494 179.024 33.6582 179.821C33.3586 180.617 32.8647 181.299 32.1765 181.868Z" fill="#410603"/>
<path d="M28.9035 170.366L21.3046 175.643L20.51 174.499L21.7276 173.653C21.0013 173.672 20.3266 173.488 19.7033 173.102C19.0751 172.719 18.5754 172.146 18.2042 171.381L19.4114 170.771C19.8175 171.722 20.4477 172.342 21.302 172.633C22.1481 172.923 22.9697 172.791 23.7667 172.237L28.1089 169.222L28.9035 170.366Z" fill="#410603"/>
<path d="M21.4678 167.806C20.6872 168.252 19.8715 168.474 19.0209 168.473C18.1673 168.467 17.375 168.244 16.6441 167.805C15.9132 167.365 15.3234 166.752 14.8747 165.967C14.426 165.181 14.1981 164.362 14.1909 163.509C14.1838 162.656 14.396 161.863 14.8274 161.13C15.2559 160.391 15.8605 159.799 16.6411 159.354C17.4166 158.911 18.2311 158.693 19.0847 158.699C19.9302 158.703 20.7209 158.923 21.457 159.36C22.1879 159.799 22.7777 160.412 23.2264 161.198C23.6751 161.983 23.9031 162.803 23.9102 163.656C23.9122 164.511 23.7015 165.307 23.2781 166.042C22.8467 166.775 22.2432 167.363 21.4678 167.806ZM20.7593 166.565C21.6278 166.069 22.1944 165.369 22.459 164.464C22.7155 163.556 22.6017 162.679 22.1175 161.831C21.6334 160.983 20.9368 160.442 20.0279 160.206C19.1109 159.969 18.2181 160.098 17.3496 160.594C16.4759 161.093 15.9108 161.796 15.6543 162.704C15.3949 163.606 15.5072 164.481 15.9914 165.329C16.4755 166.177 17.1735 166.721 18.0854 166.961C18.9943 167.196 19.8856 167.064 20.7593 166.565Z" fill="#410603"/>
<path d="M19.9714 155.402L7.75126 161.228L7.1518 159.97L19.3719 154.145L19.9714 155.402Z" fill="#410603"/>
<path d="M18.4392 152.083L6.01066 157.449L5.45842 156.17L17.8869 150.804L18.4392 152.083Z" fill="#410603"/>
<path d="M15.3135 144.463L2.99279 147.952L1.76141 143.605C1.51319 142.729 1.44076 141.861 1.54412 141.003C1.64014 140.14 1.88235 139.357 2.27075 138.653C2.65915 137.949 3.18964 137.332 3.86223 136.801C4.53318 136.264 5.29826 135.874 6.15744 135.631C7.01663 135.388 7.87255 135.318 8.72522 135.423C9.57626 135.523 10.3517 135.77 11.0516 136.166C11.7515 136.562 12.3714 137.101 12.9112 137.783C13.4436 138.462 13.8339 139.239 14.0821 140.115L15.3135 144.463ZM13.6563 143.429L12.8435 140.559C12.5806 139.631 12.1318 138.855 11.4971 138.23C10.8623 137.606 10.1134 137.19 9.25032 136.982C8.37991 136.771 7.48361 136.796 6.56141 137.057C5.63922 137.318 4.86584 137.766 4.24127 138.401C3.61507 139.03 3.1955 139.777 2.98254 140.642C2.76958 141.507 2.79452 142.403 3.05734 143.331L3.87015 146.2L13.6563 143.429Z" fill="#410603"/>
<path d="M7.57362 133.614C6.68585 133.755 5.84424 133.675 5.04877 133.374C4.25237 133.067 3.5899 132.578 3.06138 131.909C2.53285 131.24 2.19747 130.458 2.05522 129.564C1.91297 128.671 1.98913 127.824 2.28369 127.023C2.57826 126.223 3.05683 125.556 3.71941 125.022C4.38105 124.483 5.15576 124.143 6.04352 124.002C6.9254 123.861 7.76454 123.945 8.56095 124.252C9.35054 124.554 10.0125 125.04 10.5469 125.708C11.0755 126.377 11.4109 127.159 11.5531 128.053C11.6953 128.946 11.6192 129.793 11.3246 130.594C11.0242 131.395 10.5461 132.065 9.89031 132.603C9.22773 133.137 8.4555 133.474 7.57362 133.614ZM7.34901 132.203C8.33672 132.046 9.11422 131.59 9.68151 130.837C10.242 130.079 10.4455 129.217 10.292 128.253C10.1385 127.289 9.67814 126.537 8.91085 125.996C8.13674 125.45 7.25583 125.255 6.26812 125.413C5.27453 125.571 4.4975 126.029 3.93703 126.787C3.37562 127.54 3.17165 128.398 3.32513 129.362C3.47861 130.326 3.93946 131.082 4.70769 131.629C5.47499 132.17 6.35543 132.361 7.34901 132.203Z" fill="#410603"/>
<path d="M10.2815 119.415L1.12234 122.95L1.0823 121.468L8.72323 118.609L0.938518 116.148L0.900161 114.729L8.54061 111.851L0.756383 109.408L0.71875 108.016L10.0557 111.06L10.0977 112.613L2.98247 115.423L10.2395 117.862L10.2815 119.415Z" fill="#410603"/>
<path d="M10.2108 106.246L1.00959 105.285L1.15434 103.9L2.59314 104.05C2.12573 103.654 1.77542 103.168 1.5422 102.593C1.3096 102.012 1.22825 101.387 1.29814 100.718C1.41691 99.5815 1.89421 98.6796 2.73004 98.0128C3.55995 97.3453 4.54332 97.0709 5.68016 97.1897L11.0979 97.7557L10.9541 99.1323L5.6962 98.583C4.8791 98.4977 4.17238 98.7022 3.57604 99.1965C2.9744 99.6844 2.63059 100.34 2.54461 101.163C2.45986 101.974 2.6614 102.68 3.14923 103.282C3.63113 103.883 4.28063 104.226 5.09773 104.312L10.3556 104.861L10.2108 106.246Z" fill="#410603"/>
<path d="M11.645 81.461L11.8694 79.9929C12.5476 80.1148 13.1656 80.0117 13.7234 79.6836C14.2833 79.3499 14.7077 78.789 14.9967 78.0009C15.2857 77.2128 15.3272 76.5116 15.1214 75.8971C14.9155 75.2826 14.5163 74.8668 13.9238 74.6495C13.5661 74.5184 13.2265 74.4763 12.9049 74.5232C12.5833 74.5702 12.2936 74.6858 12.0358 74.8703C11.7779 75.0547 11.5263 75.2827 11.2809 75.5541C11.0299 75.8235 10.7858 76.1176 10.5484 76.4364C10.3131 76.7496 10.075 77.0618 9.83408 77.3729C9.58759 77.682 9.32209 77.9651 9.03759 78.2222C8.7475 78.4772 8.44558 78.6868 8.13183 78.8507C7.81249 79.0126 7.45011 79.1017 7.04469 79.1179C6.63369 79.132 6.19623 79.054 5.73232 78.8839C4.79331 78.5396 4.15008 77.9074 3.80262 76.9874C3.45162 76.0598 3.478 75.0454 3.88175 73.9443C4.2773 72.8656 4.88031 72.0943 5.69077 71.6306C6.50124 71.1669 7.39423 71.0315 8.36975 71.2243L8.14001 72.6809C7.4501 72.5738 6.84002 72.6639 6.30978 72.9514C5.77394 73.2368 5.3769 73.7317 5.11867 74.4359C4.86043 75.1402 4.83583 75.7779 5.04486 76.3492C5.25594 76.9148 5.64654 77.3021 6.21665 77.5112C6.54642 77.6321 6.86371 77.666 7.16852 77.6129C7.46774 77.5578 7.74068 77.4359 7.98736 77.2474C8.2305 77.0512 8.47197 76.8164 8.71175 76.5429C8.94595 76.2673 9.18071 75.9729 9.41602 75.6598C9.6478 75.3389 9.88693 75.024 10.1334 74.7149C10.382 74.4002 10.6541 74.1164 10.9498 73.8634C11.2399 73.6083 11.5502 73.4019 11.8807 73.2441C12.2132 73.0807 12.5962 72.996 13.0296 72.9901C13.4573 72.982 13.9144 73.0672 14.4006 73.2455C15.3676 73.6001 16.024 74.2656 16.3697 75.242C16.7155 76.2185 16.6722 77.2964 16.2397 78.4758C15.8175 79.6272 15.1882 80.4616 14.3516 80.9792C13.5171 81.4912 12.6149 81.6518 11.645 81.461Z" fill="#410603"/>
<path d="M14.0889 70.6422C13.2833 70.2434 12.6434 69.6908 12.1694 68.9845C11.698 68.2728 11.4407 67.4911 11.3974 66.6393C11.354 65.7875 11.5331 64.9561 11.9346 64.1452C12.3731 63.2595 12.9827 62.5849 13.7636 62.1212C14.5446 61.6575 15.3917 61.4358 16.3049 61.4562L16.2743 62.8061C15.6007 62.7848 14.9783 62.9417 14.4072 63.2768C13.8387 63.6065 13.3987 64.0861 13.087 64.7157C12.6538 65.5907 12.5921 66.4735 12.9018 67.3642C13.2141 68.2495 13.8211 68.9154 14.7228 69.3618C15.6191 69.8055 16.5166 69.8845 17.4154 69.5987C18.3115 69.305 18.9761 68.7206 19.4093 67.8456C19.7209 67.2161 19.8355 66.5753 19.7531 65.9233C19.6733 65.2661 19.4207 64.676 18.9953 64.1532L20.0423 63.3064C20.6122 64.0203 20.9495 64.8284 21.0542 65.7305C21.159 66.6326 20.9921 67.5265 20.5537 68.4122C20.1522 69.2231 19.5996 69.8696 18.896 70.3516C18.187 70.831 17.4094 71.1003 16.563 71.1596C15.7139 71.2109 14.8892 71.0384 14.0889 70.6422Z" fill="#410603"/>
<path d="M23.1986 63.0304L15.2857 58.2374L16.0075 57.0459L17.2753 57.8139C16.9626 57.1581 16.8558 56.467 16.9548 55.7404C17.0487 55.0108 17.3691 54.321 17.9161 53.6709L18.9646 54.5252C18.262 55.2829 17.9518 56.1112 18.0337 57.01C18.1137 57.9006 18.5687 58.5973 19.3987 59.1L23.9203 61.8389L23.1986 63.0304Z" fill="#410603"/>
<path d="M22.4947 55.1773C21.7697 54.6458 21.2344 53.9915 20.8889 53.2141C20.547 52.432 20.4279 51.6177 20.5317 50.7711C20.6356 49.9246 20.955 49.1364 21.49 48.4066C22.0249 47.6768 22.6804 47.1349 23.4565 46.7811C24.2325 46.4273 25.0432 46.2982 25.8884 46.3937C26.7372 46.4844 27.5241 46.7955 28.2491 47.327C28.9694 47.8549 29.5005 48.5099 29.8424 49.292C30.1831 50.0658 30.3039 50.8778 30.2049 51.7279C30.1011 52.5744 29.7817 53.3626 29.2467 54.0924C28.7117 54.8222 28.0562 55.364 27.2802 55.7178C26.4993 56.0681 25.6869 56.1997 24.8429 56.1125C23.9976 56.017 23.2149 55.7052 22.4947 55.1773ZM23.3394 54.025C24.146 54.6162 25.0166 54.8484 25.9511 54.7215C26.8843 54.5862 27.6396 54.1249 28.2168 53.3375C28.794 52.55 29.0049 51.6934 28.8495 50.7675C28.6928 49.8333 28.2111 49.0706 27.4045 48.4793C26.593 47.8845 25.7207 47.6547 24.7874 47.79C23.8577 47.9204 23.1043 48.3794 22.5271 49.1668C21.9499 49.9542 21.7372 50.8133 21.8891 51.7439C22.0445 52.6698 22.5279 53.4302 23.3394 54.025Z" fill="#410603"/>
<path d="M33.1176 48.8404L22.8109 40.0631L23.7141 39.0026L34.0208 47.7799L33.1176 48.8404Z" fill="#410603"/>
<path d="M35.4613 46.1343L25.4806 36.9881L26.4218 35.9611L36.4025 45.1073L35.4613 46.1343Z" fill="#410603"/>
<path d="M41.029 40.2098L32.762 30.4305L36.2127 27.5134C36.9083 26.9254 37.6683 26.5012 38.4927 26.2408C39.3179 25.972 40.1313 25.8691 40.9328 25.932C41.7344 25.995 42.5158 26.2231 43.277 26.6164C44.0428 27.0058 44.7139 27.5415 45.2904 28.2235C45.8669 28.9054 46.2834 29.6564 46.54 30.4763C46.8011 31.2923 46.896 32.1008 46.8247 32.9016C46.7533 33.7025 46.5184 34.4897 46.1198 35.2631C45.722 36.0282 45.1753 36.7047 44.4797 37.2928L41.029 40.2098ZM41.2863 38.2734L43.564 36.3479C44.3006 35.7253 44.8221 34.996 45.1287 34.1599C45.4354 33.3238 45.5048 32.47 45.3371 31.5984C45.17 30.7184 44.7771 29.9124 44.1583 29.1805C43.5396 28.4485 42.8121 27.9292 41.9761 27.6226C41.1446 27.3121 40.2911 27.2385 39.4156 27.4017C38.5402 27.5649 37.7342 27.9578 36.9977 28.5804L34.72 30.5059L41.2863 38.2734Z" fill="#410603"/>
<path d="M48.155 28.3333C47.6614 27.582 47.3885 26.7819 47.3364 25.9328C47.2892 25.0805 47.4622 24.2759 47.8553 23.519C48.2483 22.7621 48.823 22.1352 49.5792 21.6383C50.3355 21.1413 51.139 20.8627 51.9897 20.8023C52.8405 20.742 53.6452 20.9042 54.4038 21.289C55.1674 21.6706 55.796 22.237 56.2897 22.9883C56.78 23.7346 57.0488 24.5339 57.0959 25.3862C57.1448 26.2303 56.9743 27.0332 56.5845 27.7951C56.1914 28.552 55.6168 29.179 54.8605 29.6759C54.1043 30.1728 53.3008 30.4514 52.45 30.5118C51.596 30.5672 50.7888 30.4066 50.0285 30.03C49.2699 29.6452 48.6454 29.0796 48.155 28.3333ZM49.3491 27.5487C49.8983 28.3846 50.6329 28.9063 51.5529 29.1139C52.4745 29.3132 53.3434 29.1448 54.1593 28.6087C54.9753 28.0725 55.4722 27.3435 55.65 26.4217C55.8296 25.4917 55.6448 24.6087 55.0956 23.7729C54.5431 22.932 53.806 22.412 52.8843 22.2126C51.9677 22.01 51.1013 22.1768 50.2854 22.7129C49.4694 23.2491 48.97 23.9797 48.7872 24.9048C48.6093 25.8266 48.7966 26.7079 49.3491 27.5487Z" fill="#410603"/>
<path d="M61.7144 25.2176L54.7157 18.3326L56.049 17.6848L61.8063 23.4654L60.8361 15.3589L62.1132 14.7384L67.8865 20.5113L66.9003 12.4126L68.1533 11.8038L69.2324 21.565L67.8348 22.244L62.34 16.9216L63.112 24.5386L61.7144 25.2176Z" fill="#410603"/>
<path d="M73.4434 19.7794L70.5213 11.0016L71.843 10.5616L72.2999 11.9342C72.4677 11.345 72.7654 10.8255 73.1929 10.3758C73.6261 9.92412 74.1618 9.59206 74.8001 9.37958C75.8846 9.01855 76.903 9.08108 77.8554 9.56715C78.8059 10.0476 79.4617 10.8301 79.8227 11.9146L81.5433 17.0829L80.23 17.5201L78.5602 12.5043C78.3007 11.7248 77.8228 11.1655 77.1264 10.8263C76.4337 10.4796 75.6948 10.437 74.9097 10.6984C74.1358 10.956 73.5756 11.4311 73.2289 12.1238C72.8804 12.8108 72.8358 13.544 73.0953 14.3235L74.7651 19.3393L73.4434 19.7794Z" fill="#410603"/>
<path d="M96.9022 10.7757L98.3323 10.3752C98.5007 11.0433 98.8493 11.5639 99.3781 11.937C99.9129 12.3096 100.599 12.4652 101.436 12.4037C102.273 12.3422 102.929 12.0911 103.404 11.6503C103.879 11.2095 104.094 10.6744 104.047 10.0451C104.02 9.66511 103.918 9.33829 103.743 9.06464C103.567 8.79099 103.343 8.57469 103.068 8.41576C102.794 8.25682 102.483 8.1215 102.134 8.00979C101.785 7.89214 101.417 7.79087 101.028 7.70596C100.646 7.62062 100.264 7.53231 99.8807 7.44102C99.4975 7.34381 99.1302 7.21856 98.7787 7.06529C98.4267 6.90609 98.1114 6.71733 97.8328 6.49902C97.5536 6.27478 97.3232 5.9813 97.1413 5.61859C96.9591 5.24994 96.8498 4.81922 96.8137 4.32642C96.7404 3.32896 97.0513 2.48238 97.7464 1.78666C98.447 1.08457 99.3821 0.690587 100.552 0.604706C101.698 0.520569 102.649 0.752175 103.405 1.29952C104.162 1.84687 104.653 2.6047 104.88 3.57302L103.458 3.96394C103.271 3.29118 102.937 2.77247 102.457 2.40781C101.976 2.0372 101.362 1.87937 100.614 1.9343C99.8655 1.98923 99.2742 2.22962 98.8399 2.65548C98.4115 3.08091 98.2195 3.59642 98.264 4.20202C98.2897 4.55232 98.3896 4.85539 98.5636 5.11123C98.7371 5.36114 98.9606 5.55962 99.2341 5.70668C99.513 5.84737 99.8265 5.9706 100.174 6.07637C100.522 6.1762 100.887 6.26879 101.269 6.35414C101.657 6.43311 102.043 6.5212 102.426 6.61842C102.815 6.7152 103.186 6.84616 103.538 7.01131C103.89 7.17051 104.206 7.36818 104.486 7.6043C104.772 7.83998 105.007 8.15402 105.191 8.54642C105.375 8.93288 105.485 9.38438 105.523 9.90092C105.599 10.9281 105.263 11.8004 104.516 12.5178C103.768 13.2353 102.768 13.64 101.516 13.732C100.293 13.8218 99.2728 13.5922 98.4565 13.0433C97.6462 12.4939 97.128 11.7381 96.9022 10.7757Z" fill="#410603"/>
<path d="M107.873 8.52835C107.904 7.62995 108.144 6.81922 108.592 6.09614C109.046 5.37327 109.652 4.81652 110.41 4.42589C111.169 4.03525 112 3.85565 112.904 3.88708C113.892 3.9214 114.758 4.1987 115.502 4.71898C116.247 5.23927 116.798 5.91963 117.156 6.76007L115.913 7.28875C115.655 6.66622 115.255 6.16387 114.715 5.78172C114.18 5.39977 113.562 5.1966 112.86 5.1722C111.884 5.13829 111.054 5.44602 110.37 6.09538C109.692 6.74495 109.336 7.57248 109.301 8.57797C109.266 9.57751 109.564 10.4278 110.195 11.1288C110.832 11.824 111.639 12.1886 112.615 12.2225C113.317 12.2469 113.948 12.0872 114.508 11.7433C115.074 11.3996 115.507 10.9262 115.808 10.3231L117.011 10.9278C116.596 11.7414 115.998 12.3818 115.22 12.8492C114.441 13.3165 113.558 13.533 112.57 13.4987C111.666 13.4673 110.849 13.2304 110.12 12.7881C109.391 12.3398 108.825 11.7424 108.422 10.9957C108.025 10.2432 107.842 9.4208 107.873 8.52835Z" fill="#410603"/>
<path d="M118.652 13.6805L119.754 4.4951L121.137 4.66114L120.961 6.13293C121.429 5.57757 122.015 5.19516 122.717 4.98571C123.421 4.77035 124.181 4.77772 124.999 5.0078L124.653 6.31538C123.673 5.98788 122.791 6.04683 122.006 6.49223C121.228 6.93244 120.781 7.63427 120.665 8.59773L120.035 13.8465L118.652 13.6805Z" fill="#410603"/>
<path d="M125.493 9.78135C125.679 8.90171 126.054 8.14426 126.62 7.50901C127.191 6.87499 127.884 6.43076 128.698 6.17634C129.512 5.92191 130.362 5.88794 131.247 6.07442C132.133 6.2609 132.897 6.63471 133.539 7.19585C134.181 7.75698 134.633 8.44229 134.895 9.25175C135.162 10.0624 135.203 10.9076 135.018 11.7872C134.834 12.6611 134.456 13.415 133.885 14.049C133.32 14.6784 132.63 15.1233 131.815 15.3835C131.001 15.6379 130.151 15.6719 129.266 15.4854C128.38 15.299 127.616 14.9251 126.974 14.364C126.333 13.797 125.878 13.1111 125.609 12.3063C125.348 11.4968 125.309 10.6552 125.493 9.78135ZM126.891 10.0758C126.685 11.0545 126.833 11.9433 127.334 12.7424C127.842 13.5368 128.573 14.0347 129.529 14.2359C130.484 14.4371 131.351 14.276 132.131 13.7527C132.917 13.2248 133.414 12.4715 133.62 11.4928C133.827 10.5083 133.677 9.61882 133.169 8.82436C132.667 8.03114 131.938 7.53392 130.982 7.33272C130.027 7.13151 129.157 7.29196 128.372 7.81406C127.592 8.33738 127.099 9.09129 126.891 10.0758Z" fill="#410603"/>
<path d="M136.064 16.9554L139.852 3.95842L141.189 4.34819L137.401 17.3451L136.064 16.9554Z" fill="#410603"/>
<path d="M139.653 18.0412L143.929 5.19653L145.251 5.63654L140.975 18.4812L139.653 18.0412Z" fill="#410603"/>
<path d="M147.077 20.612L152.63 9.07341L156.702 11.0329C157.522 11.4279 158.22 11.9486 158.794 12.595C159.376 13.2385 159.802 13.939 160.072 14.6965C160.342 15.4539 160.452 16.2604 160.404 17.1158C160.361 17.9739 160.146 18.8052 159.759 19.6099C159.371 20.4145 158.856 21.1013 158.212 21.6701C157.574 22.2416 156.874 22.6582 156.114 22.92C155.354 23.1817 154.539 23.2886 153.671 23.2404C152.81 23.1895 151.969 22.9665 151.148 22.5715L147.077 20.612ZM148.95 20.0566L151.637 21.35C152.506 21.7682 153.385 21.9467 154.273 21.8853C155.162 21.824 155.969 21.5389 156.697 21.03C157.432 20.5183 158.007 19.8307 158.423 18.967C158.839 18.1034 159.016 17.2273 158.954 16.3389C158.898 15.4531 158.617 14.6439 158.111 13.9113C157.605 13.1787 156.917 12.6033 156.048 12.1851L153.36 10.8916L148.95 20.0566Z" fill="#410603"/>
<path d="M160.362 21.996C160.845 21.2375 161.462 20.6603 162.215 20.2644C162.973 19.8717 163.778 19.6993 164.629 19.7472C165.481 19.7951 166.288 20.0619 167.052 20.5476C167.815 21.0334 168.399 21.6518 168.803 22.4029C169.207 23.154 169.39 23.9543 169.35 24.8041C169.315 25.657 169.057 26.4627 168.574 27.2211C168.095 27.9745 167.476 28.5476 166.718 28.9403C165.969 29.3312 165.166 29.5052 164.312 29.4623C163.46 29.4145 162.653 29.1476 161.889 28.6619C161.126 28.1761 160.542 27.5577 160.138 26.8066C159.737 26.0505 159.552 25.2485 159.583 24.4007C159.623 23.5509 159.883 22.7494 160.362 21.996ZM161.567 22.7629C161.031 23.6068 160.856 24.4907 161.044 25.4149C161.241 26.3372 161.751 27.0604 162.575 27.5845C163.398 28.1086 164.267 28.2626 165.181 28.0466C166.102 27.8288 166.832 27.2979 167.369 26.4541C167.909 25.6053 168.081 24.7197 167.884 23.7974C167.693 22.8783 167.185 22.1567 166.362 21.6326C165.538 21.1084 164.667 20.9528 163.748 21.1656C162.834 21.3817 162.108 21.9141 161.567 22.7629Z" fill="#410603"/>
<path d="M169.259 33.4432L172.689 24.244L173.824 25.1969L170.897 32.8119L177.901 28.618L178.989 29.5307L176.075 37.1572L183.066 32.9518L184.133 33.8472L175.662 38.8159L174.472 37.8172L177.088 30.6287L170.45 34.4419L169.259 33.4432Z" fill="#410603"/>
<path d="M179.214 42.1579L186.034 35.9076L186.976 36.9346L185.909 37.912C186.515 37.8247 187.111 37.8844 187.696 38.0911C188.285 38.3022 188.807 38.6557 189.262 39.1517C190.034 39.9944 190.392 40.9497 190.337 42.0175C190.287 43.0814 189.84 43.9994 188.997 44.7716L184.981 48.4518L184.046 47.4314L187.944 43.8598C188.549 43.3047 188.865 42.6401 188.89 41.8659C188.924 41.0921 188.661 40.4001 188.102 39.7901C187.551 39.1888 186.889 38.8712 186.115 38.8375C185.346 38.7997 184.658 39.0583 184.052 39.6133L180.155 43.1849L179.214 42.1579Z" fill="#410603"/>
<path d="M194.177 55.4739L195.183 56.5662C194.664 57.0196 194.359 57.5667 194.266 58.2072C194.177 58.8528 194.35 59.5346 194.785 60.2526C195.22 60.9706 195.742 61.4411 196.35 61.6642C196.958 61.8872 197.532 61.8353 198.072 61.5084C198.398 61.311 198.643 61.0721 198.807 60.7916C198.972 60.5112 199.062 60.2127 199.079 59.8961C199.096 59.5795 199.075 59.2406 199.017 58.8795C198.963 58.5152 198.886 58.1408 198.785 57.7563C198.688 57.3769 198.593 56.996 198.5 56.6135C198.413 56.228 198.358 55.8438 198.335 55.461C198.317 55.0752 198.342 54.7085 198.41 54.3611C198.483 54.0106 198.64 53.672 198.88 53.3453C199.126 53.0155 199.46 52.7226 199.883 52.4666C200.738 51.9484 201.634 51.8411 202.569 52.1444C203.513 52.4498 204.288 53.1041 204.896 54.1072C205.491 55.0899 205.717 56.0426 205.573 56.9651C205.428 57.8877 204.976 58.6696 204.216 59.3109L203.222 58.2216C203.737 57.7498 204.048 57.2171 204.155 56.6235C204.266 56.0267 204.128 55.4076 203.739 54.766C203.351 54.1244 202.868 53.7068 202.291 53.5132C201.718 53.3247 201.171 53.3877 200.652 53.7023C200.352 53.8843 200.127 54.1109 199.978 54.3821C199.834 54.6502 199.759 54.9394 199.752 55.2498C199.753 55.5623 199.786 55.8975 199.85 56.2556C199.918 56.6106 200.002 56.9778 200.099 57.3572C200.205 57.7386 200.302 58.1221 200.389 58.5077C200.479 58.8983 200.531 59.2881 200.544 59.6771C200.562 60.0629 200.529 60.4342 200.446 60.7909C200.366 61.1526 200.193 61.5046 199.927 61.8467C199.666 62.1857 199.314 62.4894 198.871 62.7578C197.99 63.2913 197.06 63.3882 196.082 63.0482C195.103 62.7082 194.288 62.0011 193.638 60.9267C193.002 59.8777 192.744 58.865 192.862 57.8884C192.984 56.917 193.422 56.1121 194.177 55.4739Z" fill="#410603"/>
<path d="M201.076 64.0851C201.89 63.7043 202.721 63.5491 203.569 63.6192C204.419 63.6948 205.19 63.9814 205.883 64.479C206.576 64.9765 207.114 65.6352 207.497 66.4549C207.916 67.3501 208.063 68.2475 207.938 69.147C207.813 70.0466 207.458 70.8469 206.872 71.548L205.836 70.6819C206.273 70.1687 206.539 69.5844 206.633 68.929C206.73 68.2791 206.63 67.6359 206.332 66.9996C205.919 66.1152 205.267 65.5161 204.378 65.2025C203.491 64.8943 202.592 64.9532 201.681 65.3794C200.775 65.803 200.153 66.4552 199.816 67.3359C199.486 68.2195 199.528 69.1034 199.942 69.9878C200.24 70.6242 200.669 71.1135 201.23 71.4558C201.793 71.8035 202.412 71.9742 203.086 71.968L203.095 73.3145C202.181 73.3145 201.339 73.074 200.569 72.593C199.798 72.112 199.204 71.424 198.785 70.5288C198.402 69.7091 198.241 68.8739 198.304 68.0233C198.371 67.1702 198.646 66.3944 199.128 65.6959C199.617 65.0003 200.267 64.4634 201.076 64.0851Z" fill="#410603"/>
<path d="M201.387 76.0695L210.073 72.8846L210.553 74.1925L209.161 74.7028C209.869 74.8682 210.475 75.2165 210.98 75.7477C211.492 76.2768 211.83 76.958 211.996 77.7912L210.674 78.0762C210.521 77.0543 210.068 76.2946 209.315 75.7972C208.57 75.3033 207.741 75.2234 206.83 75.5574L201.867 77.3774L201.387 76.0695Z" fill="#410603"/>
<path d="M208.037 80.685C208.906 80.4532 209.751 80.4463 210.573 80.6643C211.397 80.888 212.106 81.3056 212.701 81.9171C213.295 82.5287 213.709 83.2715 213.943 84.1458C214.176 85.0201 214.187 85.8705 213.976 86.6969C213.766 87.5234 213.358 88.236 212.754 88.8348C212.151 89.4393 211.416 89.8574 210.547 90.0893C209.684 90.3196 208.841 90.3228 208.017 90.0991C207.201 89.8796 206.493 89.4648 205.892 88.8548C205.298 88.2433 204.884 87.5004 204.65 86.6261C204.417 85.7518 204.406 84.9015 204.616 84.075C204.833 83.247 205.24 82.5316 205.837 81.9286C206.441 81.3298 207.174 80.9153 208.037 80.685ZM208.405 82.0654C207.439 82.3234 206.713 82.8562 206.226 83.6639C205.746 84.4759 205.632 85.3535 205.884 86.2968C206.136 87.2401 206.671 87.9414 207.49 88.4006C208.316 88.864 209.212 88.9668 210.179 88.7088C211.151 88.4494 211.877 87.9137 212.356 87.1017C212.837 86.2955 212.952 85.4208 212.7 84.4775C212.448 83.5342 211.912 82.83 211.092 82.3651C210.273 81.9058 209.378 81.806 208.405 82.0654Z" fill="#410603"/>
<path d="M206.287 92.8367L219.585 90.3003L219.846 91.6687L206.548 94.2051L206.287 92.8367Z" fill="#410603"/>
<path d="M206.957 96.582L220.343 94.5565L220.551 95.9338L207.166 97.9594L206.957 96.582Z" fill="#410603"/>
</svg>
