<svg width="52" height="51" viewBox="0 0 52 51" fill="none" xmlns="http://www.w3.org/2000/svg">
<path d="M41.4641 50.0083H10.9705C5.27791 50.0083 0.648438 45.3788 0.648438 39.6863V20.8372C0.648438 15.1446 5.27791 10.5151 10.9705 10.5151L41.4641 10.5159C47.1567 10.5159 51.7861 15.1453 51.7861 20.8379V39.687C51.7861 45.3788 47.1567 50.0083 41.4641 50.0083V50.0083ZM10.9705 12.8791C6.57692 12.8791 3.01053 16.4461 3.01053 20.8391V39.6882C3.01053 44.0817 6.57749 47.6481 10.9705 47.6481L41.4641 47.6473C45.8577 47.6473 49.4241 44.0804 49.4241 39.6874V20.8383C49.4241 16.4448 45.8571 12.8784 41.4641 12.8784L10.9705 12.8791Z" fill="#410603"/>
<path d="M12.7438 50.0083C12.0825 50.0083 11.5627 49.4885 11.5627 48.8272V37.0171H1.83098C1.16964 37.0171 0.649902 36.4974 0.649902 35.836C0.649902 35.1747 1.16964 34.655 1.83098 34.655H12.7431C13.4045 34.655 13.9242 35.1747 13.9242 35.836V48.8271C13.9249 49.4884 13.3815 50.0082 12.7438 50.0082L12.7438 50.0083Z" fill="#410603"/>
<path d="M39.6938 50.0082C39.0324 50.0082 38.5127 49.4884 38.5127 48.8271V35.836C38.5127 35.1747 39.0324 34.655 39.6938 34.655H50.6059C51.2672 34.655 51.787 35.1747 51.787 35.836C51.787 36.4974 51.2672 37.0171 50.6059 37.0171H40.8747V48.8272C40.874 49.4886 40.355 50.0083 39.6936 50.0083L39.6938 50.0082Z" fill="#410603"/>
<path d="M50.6049 28.348H30.8351C30.1737 28.348 29.654 27.8282 29.654 27.1669C29.654 26.5055 30.1737 25.9858 30.8351 25.9858H50.6049C51.2662 25.9858 51.786 26.5055 51.786 27.1669C51.786 27.829 51.2425 28.348 50.6049 28.348ZM21.6221 28.348H1.82757C1.16622 28.348 0.646484 27.8282 0.646484 27.1669C0.646484 26.5055 1.16622 25.9858 1.82757 25.9858L21.6221 25.9866C22.2834 25.9866 22.8031 26.5063 22.8031 27.1676C22.8031 27.829 22.2597 28.348 21.6221 28.348Z" fill="#410603"/>
<path d="M36.8343 12.877C36.173 12.877 35.6532 12.3572 35.6532 11.6959V6.85364C35.6532 4.84591 33.9999 3.19254 31.9922 3.19254H20.4417C18.434 3.19254 16.7806 4.84589 16.7806 6.85364V11.6959C16.7806 12.3572 16.2609 12.877 15.5995 12.877C14.9382 12.877 14.4185 12.3572 14.4185 11.6959V6.85364C14.4185 3.52317 17.1114 0.830444 20.4416 0.830444H31.9683C35.2988 0.830444 37.9915 3.52336 37.9915 6.85364V11.6959C38.0153 12.3572 37.4718 12.877 36.8342 12.877H36.8343Z" fill="#410603"/>
<path d="M26.2056 32.9544C23.0168 32.9544 20.4189 30.3564 20.4189 27.1677C20.4189 23.979 23.017 21.381 26.2056 21.381C29.3945 21.381 31.9923 23.979 31.9923 27.1677C31.9923 30.3558 29.4175 32.9544 26.2056 32.9544ZM26.2056 23.7423C24.3158 23.7423 22.781 25.2778 22.781 27.1669C22.781 29.0568 24.3165 30.5915 26.2056 30.5915C28.0955 30.5915 29.6302 29.0561 29.6302 27.1669C29.6302 25.2778 28.0948 23.7423 26.2056 23.7423Z" fill="#410603"/>
</svg>
